# File created by Blade
# Date/Time:  Thu Jan 15 17:55:17 2015
#---------------------------------------------------------
:version 1.10
:name HOM
:units
  mass 1.0
  length 1.000000
  angle deg
:documentation
     Acclaim Skeleton File
:root
   axis xyz
   order TX TY TZ RX RY RZ
   position 0.000000 0.000000 0.000000
   orientation 0 0 0
:bonedata
   begin
      id 1
      name Spine_dum
      direction 0.000000 1.000000 0.000000
      length 5.015652
      axis 0.0 0.0 0.0 xyz
   end
   begin
      id 2
      name LeftUpLeg_dum
      direction 1.000000 0.000000 0.000000
      length 4.275145
      axis 0.0 0.0 0.0 xyz
   end
   begin
      id 3
      name RightUpLeg_dum
      direction -1.000000 0.000000 0.000000
      length 4.275145
      axis 0.0 0.0 0.0 xyz
   end
   begin
      id 4
      name Spine
      direction 0.000000 1.000000 0.000000
      length 0.000000
      axis 0.0 0.0 0.0 xyz
      dof rx ry rz
   end
   begin
      id 5
      name Spine_dum1
      direction 0.000000 1.000000 0.000000
      length 15.980521
      axis 0.0 0.0 0.0 xyz
   end
   begin
      id 6
      name Spine_dum2
      direction 0.000000 1.000000 0.000000
      length 12.162712
      axis 0.0 0.0 0.0 xyz
   end
   begin
      id 7
      name Spine_dum3
      direction 0.000000 1.000000 0.000000
      length 12.162712
      axis 0.0 0.0 0.0 xyz
   end
   begin
      id 8
      name Head
      direction 0.000000 1.000000 0.000000
      length 4.527550
      axis 0.0 0.0 0.0 xyz
      dof rx ry rz
   end
   begin
      id 9
      name LeftShoulder
      direction 1.000000 0.000000 0.000000
      length 7.205867
      axis 0.0 0.0 -90.0 xyz
      dof rx ry rz
   end
   begin
      id 10
      name LeftArm
      direction 1.000000 0.000000 0.000000
      length 10.786708
      axis 0.0 0.0 -90.0 xyz
      dof rx ry rz
   end
   begin
      id 11
      name LeftForeArm
      direction 1.000000 0.000000 0.000000
      length 7.946034
      axis 0.0 0.0 -90.0 xyz
      dof rz ry rx
   end
   begin
      id 12
      name LeftHand
      direction 0.000000 0.000000 0.000000
      length 0.000000
      axis 0.0 0.0 -90.0 xyz
      dof rx ry rz
   end
   begin
      id 13
      name LeftHand_dum1
      direction 0.000000 0.000000 0.000000
      length 0.000000
      axis 0.0 0.0 -90.0 xyz
   end
   begin
      id 14
      name LeftHand_dum2
      direction 1.000000 0.000000 0.000000
      length 3.937000
      axis 0.0 0.0 -90.0 xyz
   end
   begin
      id 15
      name LeftHandThumb1
      direction 0.000000 0.000000 1.000000
      length 3.937000
      axis 0.0 0.0 -90.0 xyz
      dof rx ry rz
   end
   begin
      id 16
      name RightShoulder
      direction -1.000000 0.000000 0.000000
      length 7.205867
      axis 0.0 0.0 90.0 xyz
      dof rx ry rz
   end
   begin
      id 17
      name RightArm
      direction -1.000000 0.000000 0.000000
      length 10.786708
      axis 0.0 0.0 90.0 xyz
      dof rx ry rz
   end
   begin
      id 18
      name RightForeArm
      direction -1.000000 0.000000 0.000000
      length 7.946034
      axis 0.0 0.0 90.0 xyz
      dof rz ry rx
   end
   begin
      id 19
      name RightHand
      direction 0.000000 0.000000 0.000000
      length 0.000000
      axis 0.0 0.0 90.0 xyz
      dof rx ry rz
   end
   begin
      id 20
      name RightHand_dum1
      direction 0.000000 0.000000 0.000000
      length 0.000000
      axis 0.0 0.0 90.0 xyz
   end
   begin
      id 21
      name RightHand_dum2
      direction -1.000000 0.000000 0.000000
      length 3.937000
      axis 0.0 0.0 90.0 xyz
   end
   begin
      id 22
      name RightHandThumb1
      direction 0.000000 0.000000 1.000000
      length 3.937000
      axis 0.0 0.0 90.0 xyz
      dof rx ry rz
   end
   begin
      id 23
      name LeftUpLeg
      direction 0.000000 -1.000000 0.000000
      length 17.046659
      axis 0.0 0.0 0.0 xyz
      dof rx ry rz
   end
   begin
      id 24
      name LeftLeg
      direction 0.000000 -1.000000 0.000000
      length 17.458438
      axis 0.0 0.0 0.0 xyz
      dof rx ry rz
   end
   begin
      id 25
      name LeftFoot
      direction 0.000000 -0.258819 0.965926
      length 5.099406
      axis 15.0 0.0 0.0 xyz
      dof rx ry rz
   end
   begin
      id 26
      name LeftToeBase
      direction 0.000000 0.000000 1.000000
      length 2.952750
      axis 0.0 0.0 0.0 xyz
      dof rx ry rz
   end
   begin
      id 27
      name RightUpLeg
      direction 0.000000 -1.000000 0.000000
      length 17.046659
      axis 0.0 0.0 0.0 xyz
      dof rx ry rz
   end
   begin
      id 28
      name RightLeg
      direction 0.000000 -1.000000 0.000000
      length 17.458438
      axis 0.0 0.0 0.0 xyz
      dof rx ry rz
   end
   begin
      id 29
      name RightFoot
      direction 0.000000 -0.258819 0.965926
      length 5.099406
      axis 15.0 0.0 0.0 xyz
      dof rx ry rz
   end
   begin
      id 30
      name RightToeBase
      direction 0.000000 0.000000 1.000000
      length 2.952750
      axis 0.0 0.0 0.0 xyz
      dof rx ry rz
   end
:hierarchy
   begin
      root Spine_dum LeftUpLeg_dum RightUpLeg_dum
      Spine_dum Spine
      LeftUpLeg_dum LeftUpLeg
      RightUpLeg_dum RightUpLeg
      Spine Spine_dum1 Spine_dum2 Spine_dum3
      Spine_dum1 Head
      Spine_dum2 LeftShoulder
      Spine_dum3 RightShoulder
      LeftShoulder LeftArm
      LeftArm LeftForeArm
      LeftForeArm LeftHand
      LeftHand LeftHand_dum1 LeftHand_dum2
      LeftHand_dum1 LeftHandThumb1
      RightShoulder RightArm
      RightArm RightForeArm
      RightForeArm RightHand
      RightHand RightHand_dum1 RightHand_dum2
      RightHand_dum1 RightHandThumb1
      LeftUpLeg LeftLeg
      LeftLeg LeftFoot
      LeftFoot LeftToeBase
      RightUpLeg RightLeg
      RightLeg RightFoot
      RightFoot RightToeBase
   end

# File created by Blade
# Date/Time:  Thu Jan 15 17:55:09 2015
# Frame Rate: 120.000 fps
#------------------------------------------------------
:FULLY-SPECIFIED
:DEGREES
1096
root 5.068507 35.168658 -8.961069 7.661793 -8.757331 -4.571196
Spine -19.331046 -18.292960 -4.000236
Head 8.272334 2.755866 25.930691
LeftShoulder -35.670744 -3.186352 7.376663
LeftArm -6.241799 -46.648481 -47.020303
LeftForeArm -0.000000 13.945072 11.814897
LeftHand 5.074965 -0.000000 15.560137
LeftHandThumb1 -26.253704 33.147579 0.000000
RightShoulder -8.950689 32.553481 -29.800327
RightArm -1.426630 57.478996 0.875192
RightForeArm -0.000000 -42.737881 45.677684
RightHand -3.055707 -0.000000 -14.238238
RightHandThumb1 -24.326973 -32.862282 -0.000000
LeftUpLeg 4.747678 13.745779 14.973249
LeftLeg -0.556709 -0.000000 0.000000
LeftFoot -24.770083 6.890462 -22.039946
LeftToeBase 25.644998 -0.000000 -0.000000
RightUpLeg 0.731779 -12.356893 1.275244
RightLeg -4.714212 -0.000000 0.000000
RightFoot -20.076540 -26.437149 13.410838
RightToeBase 27.411562 -0.000000 -0.000000
1097
root 5.159787 35.167945 -8.889531 7.538688 -8.551278 -4.336786
Spine -19.800535 -18.381473 -3.389827
Head 8.659657 2.987354 25.326616
LeftShoulder -35.725915 -3.224185 7.530805
LeftArm -6.217339 -46.392261 -47.316486
LeftForeArm -0.000000 14.433745 12.283884
LeftHand 5.076796 0.000000 15.327255
LeftHandThumb1 -26.253704 33.147579 0.000000
RightShoulder -9.053803 32.648831 -29.670742
RightArm -2.033867 57.678438 0.504742
RightForeArm -0.000000 -42.796044 46.728444
RightHand -3.006412 -0.000000 -14.839368
RightHandThumb1 -24.326973 -32.862282 -0.000000
LeftUpLeg 4.824270 13.465517 14.628115
LeftLeg -0.519719 -0.000000 0.000000
LeftFoot -24.837581 6.812791 -22.042083
LeftToeBase 25.610182 -0.000000 -0.000000
RightUpLeg 0.883203 -12.724158 0.879582
RightLeg -4.615987 -0.000000 0.000000
RightFoot -20.216549 -26.342163 13.542065
RightToeBase 27.467306 -0.000000 -0.000000
1098
root 5.247416 35.165995 -8.816540 7.423282 -8.383497 -4.107909
Spine -20.281113 -18.417200 -2.795363
Head 9.009047 3.170275 24.777126
LeftShoulder -35.771269 -3.181022 7.639935
LeftArm -6.092269 -46.124368 -47.659610
LeftForeArm 0.000000 14.896937 12.697909
LeftHand 5.113023 -0.000000 15.134934
LeftHandThumb1 -26.253704 33.147579 0.000000
RightShoulder -9.175145 32.656574 -29.519443
RightArm -2.614322 57.966228 0.143546
RightForeArm -0.000000 -42.760135 47.727885
RightHand -3.060694 -0.000000 -15.167775
RightHandThumb1 -24.326973 -32.862282 -0.000000
LeftUpLeg 4.926558 13.137718 14.282476
LeftLeg -0.507020 -0.000000 0.000000
LeftFoot -24.917080 6.853403 -22.033218
LeftToeBase 25.542606 -0.000000 -0.000000
RightUpLeg 1.044257 -12.958122 0.486870
RightLeg -4.540446 -0.000000 0.000000
RightFoot -20.367769 -26.338182 13.675663
RightToeBase 27.544484 -0.000000 -0.000000
1099
root 5.338619 35.163938 -8.744432 7.302095 -8.192143 -3.852348
Spine -20.765161 -18.460692 -2.234230
Head 9.418880 3.392914 24.249972
LeftShoulder -35.792488 -3.101201 7.720844
LeftArm -5.955378 -45.895747 -48.010176
LeftForeArm -0.000000 15.297123 13.096562
LeftHand 5.100104 -0.000000 14.968211
LeftHandThumb1 -26.253704 33.147579 0.000000
RightShoulder -9.252331 32.670427 -29.327397
RightArm -3.267955 58.226482 -0.348762
RightForeArm -0.000000 -42.600133 48.582286
RightHand -3.019388 0.000000 -15.599311
RightHandThumb1 -24.326973 -32.862282 -0.000000
LeftUpLeg 4.994871 12.844413 13.905478
LeftLeg -0.444058 -0.000000 0.000000
LeftFoot -24.995631 6.846821 -22.014390
LeftToeBase 25.478805 -0.000000 -0.000000
RightUpLeg 1.196606 -13.301438 0.062102
RightLeg -4.441913 -0.000000 0.000000
RightFoot -20.498598 -26.270564 13.769341
RightToeBase 27.598705 -0.000000 -0.000000
1100
root 5.423518 35.161129 -8.669151 7.164584 -8.040584 -3.619716
Spine -21.231523 -18.475406 -1.658658
Head 9.747856 3.645951 23.721038
LeftShoulder -35.847778 -3.044186 7.781647
LeftArm -5.819210 -45.718089 -48.274864
LeftForeArm -0.000000 15.750803 13.435785
LeftHand 5.092401 0.000000 14.698166
LeftHandThumb1 -26.253704 33.147579 0.000000
RightShoulder -9.363980 32.666512 -29.183392
RightArm -3.899502 58.496842 -0.737085
RightForeArm -0.000000 -42.513636 49.408212
RightHand -3.002458 -0.000000 -15.658531
RightHandThumb1 -24.326973 -32.862282 -0.000000
LeftUpLeg 5.185578 12.696812 13.575226
LeftLeg -0.532926 -0.000000 0.000000
LeftFoot -24.985696 6.755687 -21.987764
LeftToeBase 25.489155 -0.000000 -0.000000
RightUpLeg 1.374946 -13.571884 -0.344659
RightLeg -4.339793 -0.000000 0.000000
RightFoot -20.644619 -26.209144 13.870668
RightToeBase 27.644160 -0.000000 -0.000000
